<?xml version="1.0" encoding="utf-8"?>
<!-- Generator: Adobe Illustrator 18.1.1, SVG Export Plug-In . SVG Version: 6.00 Build 0)  -->
<svg version="1.1" id="Capa_1" xmlns="http://www.w3.org/2000/svg" xmlns:xlink="http://www.w3.org/1999/xlink" x="0px" y="0px"
	 viewBox="0 0 257.8 77.1" enable-background="new 0 0 257.8 77.1" xml:space="preserve">
<path fill="#079939" d="M29,53.2l0.5-6.8c0,0,0.5-1.4,1.7-1.4c1.3,0,1.7,1,1.8,1.3c0.1,0.4-0.8,14-0.8,14s-0.5,1.9-2.1,1.5
	c-1.6-0.4-1.5-1.7-1.5-1.7L29,53.2z"/>
<g>
	<path fill="#FFFFFF" d="M96.8,9.9c0.5,0.5,1.1,0.9,1.8,1.2c0.7,0.3,1.5,0.4,2.3,0.4c0.8,0,1.6-0.1,2.3-0.4c0.7-0.3,1.3-0.7,1.8-1.2
		c0.5-0.5,1-1.1,1.3-1.8c0.3-0.7,0.5-1.5,0.5-2.3c0-0.8-0.2-1.6-0.5-2.3c-0.3-0.7-0.7-1.3-1.3-1.8c-0.5-0.5-1.2-1-1.8-1.3
		c-0.7-0.3-1.5-0.5-2.3-0.5c-0.8,0-1.6,0.2-2.3,0.5c-0.7,0.3-1.3,0.7-1.8,1.3c-0.5,0.5-0.9,1.1-1.2,1.8c-0.3,0.7-0.4,1.5-0.4,2.3
		c0,0.8,0.1,1.6,0.4,2.3C95.8,8.8,96.3,9.4,96.8,9.9z"/>
	<path fill="#FFFFFF" d="M247.2,15.5l-4.9,23.3c-0.3,0.9-0.6,1.8-1,2.6c-0.4,0.8-0.8,1.5-1.3,2c-0.5,0.6-1,1-1.6,1.3
		c-0.6,0.3-1.2,0.5-2,0.5c-0.4,0-0.8-0.1-1-0.3c-0.3-0.2-0.5-0.4-0.7-0.7c-0.2-0.3-0.3-0.6-0.4-1s-0.1-0.8-0.1-1.2
		c0-0.6,0.1-1.2,0.2-1.8l5.2-24.7h-10.5l-4.1,4.2c-0.1-0.3-0.1-0.5-0.2-0.8c-0.2-0.7-0.5-1.2-1-1.7c-0.4-0.5-1-0.9-1.6-1.2
		c-0.6-0.3-1.4-0.5-2.2-0.5c-0.9,0-1.7,0.1-2.5,0.4c-0.8,0.3-1.5,0.6-2.3,1c-0.7,0.4-1.4,0.9-2.1,1.4c-0.7,0.5-1.3,1.1-2,1.7
		l0.9-4.5h-10.5l-4.1,4.2c0-0.3-0.1-0.5-0.2-0.8c-0.2-0.7-0.5-1.2-1-1.7c-0.4-0.5-1-0.9-1.6-1.2c-0.6-0.3-1.4-0.5-2.2-0.5
		c-0.9,0-1.7,0.1-2.5,0.4c-0.8,0.3-1.5,0.6-2.3,1c-0.7,0.4-1.4,0.9-2.1,1.4c-0.7,0.5-1.3,1.1-2,1.7l0.9-4.5h-10.5l-4.9,23.4
		c-0.9,1-1.8,2-2.7,2.9c-0.9,0.9-1.9,1.7-2.9,2.3c-1,0.7-2.1,1.2-3.3,1.6c-1.2,0.4-2.5,0.6-3.9,0.6c-0.9,0-1.6-0.1-2.3-0.3
		c-0.7-0.2-1.2-0.5-1.6-0.9c-0.4-0.5-0.8-1.1-1-1.9c-0.2-0.8-0.3-1.8-0.3-3c0-0.4,0-0.9,0.1-1.4c0-0.5,0.1-1,0.1-1.5
		c2.2-0.1,4.3-0.6,6.3-1.5c2-0.8,3.8-1.9,5.3-3.3c1.6-1.4,2.8-2.9,3.7-4.7c0.9-1.8,1.4-3.8,1.4-5.9c0-0.9-0.1-1.8-0.3-2.6
		c-0.2-0.8-0.6-1.6-1.2-2.2c-0.6-0.6-1.4-1.2-2.5-1.5c-1-0.4-2.4-0.6-4-0.6c-2.5,0-4.7,0.4-6.6,1.3c-1.9,0.9-3.6,2.1-5.1,3.5
		c-1.4,1.5-2.7,3.1-3.7,5c-1,1.8-1.8,3.7-2.5,5.7c-0.2,0.5-0.3,1-0.5,1.6c-0.8-0.4-1.6-0.8-2.3-1.4c-0.9-0.8-2-1.9-1.9-3.3
		c0,0,0,0,0,0c0-2-0.2-3.8-0.6-5.3c-0.4-1.6-1-2.9-1.8-3.9c-0.8-1-1.7-1.7-2.7-2.1c-1.1-0.4-2.2-0.6-3.5-0.6c-0.4,0-0.7,0-1.1,0.1
		c-0.4,0-0.8,0.1-1.3,0.3c-0.5,0.1-1,0.4-1.6,0.6c-0.6,0.3-1.2,0.6-2,1.1l3.5-16.4l-10.8,1.5l-7.8,36.5c-0.3,0.9-0.7,1.8-1.1,2.6
		c-0.4,0.8-1,1.5-1.5,2c-0.6,0.6-1.2,1-1.9,1.3c-0.7,0.3-1.4,0.5-2.1,0.5c-1,0-1.8-0.2-2.2-0.6c-0.5-0.4-0.7-1.1-0.7-2.1
		c0-0.4,0-0.8,0.1-1.2c0-0.4,0.1-0.8,0.2-1.2l5.2-24.7H93.7l-4.9,23.3c-0.3,0.9-0.7,1.8-1.1,2.6c-0.5,0.8-1,1.5-1.5,2
		c-0.6,0.6-1.2,1-1.9,1.3c-0.7,0.3-1.4,0.5-2.1,0.5c-1,0-1.8-0.2-2.2-0.6c-0.5-0.4-0.7-1.1-0.7-2.1c0-0.4,0-0.8,0.1-1.2
		c0-0.4,0.1-0.8,0.2-1.2l8.4-39.3L77.1,2.4l-7.8,36.5c-0.9,1-1.8,2-2.8,2.9c-0.9,0.9-1.9,1.7-2.9,2.3c-1,0.7-2.1,1.2-3.3,1.6
		c-1.2,0.4-2.5,0.6-3.9,0.6c-0.9,0-1.6-0.1-2.3-0.3c-0.7-0.2-1.2-0.5-1.6-0.9c-0.4-0.5-0.8-1.1-1-1.9c-0.2-0.8-0.3-1.8-0.3-3
		c0-0.4,0-0.9,0.1-1.4c0-0.5,0.1-1,0.1-1.5c2.2-0.1,4.3-0.6,6.3-1.5c2-0.8,3.8-1.9,5.3-3.3c1.6-1.4,2.8-2.9,3.7-4.7
		c0.9-1.8,1.4-3.8,1.4-5.9c0-0.9-0.1-1.8-0.3-2.6c-0.2-0.8-0.6-1.6-1.2-2.2c-0.6-0.6-1.4-1.2-2.5-1.5c-1-0.4-2.4-0.6-4-0.6
		c-2.5,0-4.7,0.4-6.6,1.3c-1.9,0.9-3.6,2.1-5.1,3.5c-1.4,1.5-2.7,3.1-3.7,5c-1,1.8-1.8,3.7-2.5,5.7c-0.6,1.9-1.1,3.8-1.4,5.6
		c-0.3,1.8-0.4,3.4-0.4,4.8c0,0.2,0,0.4,0,0.5c0,0,0,0.1-0.1,0.1c-0.4,0.8-0.8,1.5-1.3,2c-0.5,0.6-1,1-1.6,1.3
		c-0.6,0.3-1.3,0.5-2,0.5c-1,0-1.8-0.2-2.3-0.6c-0.5-0.4-0.7-1.1-0.7-2.1c0-0.4,0-0.8,0.1-1.2c0-0.4,0.1-0.8,0.2-1.2l8.4-39.3
		L30.4,2.4l-3.6,16.7v-0.3c0-1-0.5-1.9-1.4-2.6c-0.9-0.7-2.4-1.1-4.5-1.1c-2.1,0-4,0.4-5.8,1.2c-1.8,0.8-3.3,1.9-4.7,3.2
		c-1.4,1.3-2.6,2.9-3.6,4.6c-1,1.7-1.9,3.6-2.6,5.5c-0.7,1.9-1.2,3.8-1.5,5.7c-0.3,1.9-0.5,3.7-0.5,5.3c0,2.2,0.3,4,0.8,5.5
		c0.5,1.5,1.3,2.7,2.2,3.6c0.9,0.9,1.9,1.6,3.1,2c1.2,0.4,2.4,0.6,3.6,0.6c1.3,0,2.5-0.2,3.6-0.6c1.1-0.4,2.1-0.9,3-1.5
		c0.9-0.6,1.7-1.3,2.4-2.1c0.7-0.8,1.3-1.6,1.9-2.4c0.3,2.1,1,3.6,2.3,4.7c1.2,1.1,2.9,1.6,4.9,1.6c0.6,0,1.4,0,2.1-0.1
		c0.8-0.1,1.6-0.3,2.5-0.6c0.9-0.3,1.7-0.8,2.6-1.3c0.9-0.6,1.8-1.3,2.6-2.3c0.5-0.5,1-1.1,1.4-1.8c0,0.1,0.1,0.3,0.1,0.4
		c0.5,1.5,1.3,2.6,2.3,3.6c1,0.9,2.2,1.6,3.6,2c1.4,0.4,3,0.7,4.7,0.7c2.4,0,4.6-0.4,6.6-1.2c2-0.8,3.8-1.8,5.5-3
		c1.6-1.3,3.1-2.7,4.4-4.3c0.2-0.2,0.3-0.4,0.5-0.6c0,0.1,0,0.3,0,0.4c0,1.5,0.2,2.9,0.6,3.9c0.4,1.1,1,2,1.7,2.7
		c0.7,0.7,1.5,1.2,2.5,1.6c0.9,0.3,2,0.5,3.1,0.5c0.6,0,1.4-0.1,2.2-0.2c0.8-0.1,1.7-0.3,2.6-0.7c0.9-0.3,1.8-0.8,2.8-1.4
		c1-0.6,1.9-1.4,2.8-2.4c0.5-0.5,1-1.2,1.5-1.8c0.1,0.6,0.2,1.2,0.4,1.8c0.4,1.1,1,2,1.7,2.7c0.7,0.7,1.5,1.2,2.5,1.6
		c0.9,0.3,2,0.5,3.1,0.5c0.6,0,1.4-0.1,2.2-0.2c0.8-0.1,1.7-0.3,2.6-0.7c0.9-0.3,1.8-0.8,2.8-1.4c1-0.6,1.9-1.4,2.8-2.4
		c0.6-0.6,1.1-1.3,1.6-2.1c0.4,1.7,1.1,3.2,2.3,4.3c1.7,1.6,4.2,2.5,7.6,2.5c2.6,0,4.9-0.4,6.9-1.2c2-0.8,3.7-1.9,5.2-3.3
		c1.5-1.4,2.7-2.9,3.7-4.6c1-1.7,1.8-3.5,2.5-5.3c0.4-1.1,0.7-2.1,0.9-3.2c0.4,0.2,0.8,0.4,1.2,0.5c1,0.4,2,0.7,3,0.9
		c-0.3,1.7-0.4,3.3-0.4,4.6c0,2.1,0.3,3.8,0.8,5.3c0.5,1.5,1.3,2.6,2.3,3.6c1,0.9,2.2,1.6,3.6,2c1.4,0.4,3,0.7,4.7,0.7
		c2.4,0,4.6-0.4,6.6-1.2c2-0.8,3.8-1.8,5.5-3c1.6-1.2,3.1-2.6,4.4-4.2l-1.7,8h10.5l5.8-27.6c0.9-0.8,1.7-1.5,2.5-2
		c0.8-0.5,1.7-0.8,2.8-0.8c0.4,0,0.6,0.1,0.8,0.4c0.2,0.2,0.3,0.5,0.4,0.9c0.1,0.4,0.2,0.7,0.3,1.2c0.1,0.4,0.2,0.8,0.4,1.2
		c0.2,0.4,0.5,0.7,0.8,0.9c0.4,0.2,0.9,0.4,1.6,0.4c0.9,0,1.6-0.2,2.3-0.5c0.6-0.3,1-0.6,1.4-1l0,0l0,0c0.1-0.1,0.1-0.1,0.2-0.2
		c0,0,0-0.1,0.1-0.1l4.2-4.4l-6.8,31.9h10.5l5.8-27.6c0.9-0.8,1.7-1.5,2.5-2c0.8-0.5,1.7-0.8,2.8-0.8c0.4,0,0.6,0.1,0.8,0.4
		c0.2,0.2,0.3,0.5,0.4,0.9c0.1,0.4,0.2,0.7,0.3,1.2c0.1,0.4,0.2,0.8,0.4,1.2c0.2,0.4,0.5,0.7,0.8,0.9c0.4,0.2,0.9,0.4,1.6,0.4
		c0.9,0,1.6-0.2,2.3-0.5c0.6-0.3,1.1-0.7,1.5-1.1l0,0l0.1-0.1c0,0,0,0,0.1-0.1c0,0,0,0,0,0l4.3-4.5l-4,18.8
		c-0.2,0.9-0.3,1.8-0.4,2.6c-0.1,0.8-0.1,1.5-0.1,2.2c0,1.5,0.2,2.9,0.6,3.9c0.4,1.1,1,2,1.7,2.7c0.7,0.7,1.5,1.2,2.5,1.6
		c0.9,0.3,2,0.5,3.1,0.5c0.6,0,1.3-0.1,2-0.2c0.7-0.1,1.4-0.3,2.2-0.6c0.8-0.3,1.5-0.7,2.3-1.3c0.8-0.5,1.6-1.3,2.3-2.2l-0.7,3.2
		c-1.8,0.5-3.4,1.1-4.9,1.6c-1.5,0.6-2.9,1.2-4,2c-1.1,0.8-2,1.8-2.7,2.9c-0.7,1.2-1,2.6-1,4.3c0,1.2,0.2,2.3,0.7,3.2
		c0.5,1,1.1,1.8,1.9,2.5c0.8,0.7,1.7,1.2,2.7,1.6c1,0.4,2.1,0.6,3.2,0.6c1.2,0,2.4-0.2,3.8-0.5c1.3-0.3,2.6-0.9,3.8-1.8
		c1.2-0.9,2.3-2.2,3.3-3.8c1-1.6,1.8-3.7,2.3-6.3l8.9-42.2H247.2z M53.3,28.3c0.6-1.8,1.3-3.4,2.1-4.8c0.8-1.4,1.6-2.6,2.5-3.5
		c0.9-0.9,1.8-1.3,2.7-1.3c0.7,0,1.2,0.3,1.4,0.8c0.3,0.5,0.4,1.3,0.4,2.2c0,1.5-0.3,3-0.9,4.4c-0.6,1.4-1.4,2.7-2.3,3.8
		c-1,1.1-2.1,2-3.4,2.7c-1.3,0.7-2.6,1.1-4,1.2C52.3,31.9,52.7,30.1,53.3,28.3z M22.6,38.8c0,0-0.5,2.1-1,3.1
		c-0.5,0.8-1,1.4-1.5,1.9c-0.6,0.5-1.1,0.9-1.7,1.1c-0.6,0.2-1.2,0.4-1.7,0.4c-0.3,0-0.7,0-1.1-0.1c-0.4-0.1-0.8-0.3-1.2-0.7
		c-0.4-0.4-0.7-0.9-0.9-1.7C13.1,42.1,13,41,13,39.6c0-1.1,0.1-2.4,0.3-3.9c0.2-1.4,0.5-2.9,0.9-4.4c0.4-1.5,0.9-2.9,1.5-4.3
		c0.6-1.4,1.3-2.6,2-3.8c0.8-1.1,1.6-2,2.5-2.6c0.9-0.7,1.9-1,2.9-1c0.6,0,1,0.1,1.4,0.3c0.4,0.2,0.7,0.4,0.9,0.7
		c0.2,0.3,0.4,0.5,0.5,0.8c0.1,0.3,0.2,0.5,0.2,0.7L22.6,38.8z M130.1,31.4c-0.2,1.4-0.5,2.7-0.9,4c-0.4,1.3-0.8,2.6-1.3,3.8
		c-0.5,1.2-1.1,2.2-1.7,3.1c-0.6,0.9-1.3,1.6-2,2.1c-0.7,0.5-1.5,0.8-2.3,0.8c-2.6,0-3.8-1.1-3.8-3.4c0-0.5,0.1-1.1,0.2-1.7l4-18.5
		c0.2-0.3,0.5-0.5,0.9-0.6c0.4-0.2,0.8-0.3,1.2-0.4c0.4-0.1,0.8-0.2,1.2-0.2c0.4,0,0.7-0.1,1-0.1c0.7,0,1.2,0.2,1.7,0.6
		c0.5,0.4,0.9,0.9,1.2,1.6c0.3,0.7,0.6,1.4,0.7,2.3c0.2,0.8,0.2,1.7,0.2,2.6C130.4,28.7,130.3,30,130.1,31.4z M155.7,23.5
		c0.8-1.4,1.6-2.6,2.5-3.5c0.9-0.9,1.8-1.3,2.7-1.3c0.7,0,1.2,0.3,1.4,0.8c0.3,0.5,0.4,1.3,0.4,2.2c0,1.5-0.3,3-0.9,4.4
		c-0.6,1.4-1.4,2.7-2.3,3.8c-1,1.1-2.1,2-3.4,2.7c-0.7,0.4-1.4,0.7-2.1,0.9c-0.6,0.1-1.2,0.1-1.8,0.2c0.4-1.7,0.8-3.5,1.4-5.2
		C154.3,26.5,155,24.9,155.7,23.5z M238.3,57.9c-0.2,1.1-0.5,2-0.9,2.7c-0.3,0.7-0.7,1.3-1.1,1.8c-0.4,0.4-0.8,0.7-1.2,0.9
		c-0.4,0.2-0.8,0.3-1.2,0.3c-0.4,0-0.8-0.1-1.2-0.2c-0.4-0.2-0.7-0.3-0.9-0.6c-0.3-0.2-0.5-0.5-0.6-0.8c-0.1-0.3-0.2-0.6-0.2-0.9
		c0-1,0.2-1.8,0.6-2.6c0.4-0.8,1-1.5,1.7-2.1c0.7-0.6,1.6-1.1,2.6-1.6c1-0.5,2.1-0.9,3.2-1.3L238.3,57.9z"/>
</g>
<path fill="#079939" d="M30.4,63.4c2.8-0.1,3.3-2.6,3.3-2.6l0.2-3.4l9-4.4c0,0,1.5,1.4,3,1.9c1.4,0.5,2.7,0.2,4.1-1.4
	c1.4-1.5-0.1-4.1-0.1-4.1l3.7-1.8c0,0,1.5-0.8,2.4,0.9c0.9,1.6-1.3,2.7-1.3,2.7s2.8,14,2.8,14.3c0,0.3-0.1,0.6-0.2,1
	c-0.1,0.4-0.9,1.3-0.9,1.3s-18.5,9.1-18.6,9.2c-0.1,0-0.6,0.3-1.5,0c-1.1-0.3-1.3-0.8-1.3-0.8l-9.3-10.7l-0.5,0.2
	c-0.5,0.2-2,0.3-2.6-0.9c-0.6-1.2,0.5-2.2,0.5-2.2l4.1-2C26.9,60.8,27.7,63.5,30.4,63.4 M33.2,66.4l3.5,7.1c0,0,0.5,0.9,1.4,0.5
	c0.9-0.4,0.5-1.4,0.5-1.4L35,65.5c0,0-0.5-0.9-1.4-0.4C32.8,65.4,33.2,66.4,33.2,66.4 M38.3,63.9l3.5,7.1c0,0,0.5,0.9,1.4,0.5
	c0.9-0.5,0.5-1.4,0.5-1.4l-3.5-7.1c0,0-0.5-0.9-1.4-0.4C37.9,63,38.3,63.9,38.3,63.9 M43.5,61.4l3.5,7.1c0,0,0.5,0.9,1.4,0.5
	c0.9-0.4,0.5-1.4,0.5-1.4l-3.5-7.1c0,0-0.5-0.9-1.4-0.4C43.2,60.5,43.5,61.4,43.5,61.4 M48.7,58.9l3.5,7.1c0,0,0.5,0.9,1.4,0.5
	c0.9-0.4,0.5-1.3,0.5-1.3L50.5,58c0,0-0.5-0.9-1.4-0.4C48.3,58.1,48.7,58.9,48.7,58.9"/>
<path fill="#079939" d="M40.5,49.7L35,45.8c0,0-1-1.2-0.4-2.2c0.6-1.1,1.6-1.1,2-1c0.4,0.1,11.7,7.7,11.7,7.7s1.4,1.4,0.3,2.6
	c-1.2,1.3-2.2,0.5-2.2,0.5L40.5,49.7z"/>
</svg>
